<svg xmlns="http://www.w3.org/2000/svg" viewBox="0 0 50 49.88"><defs><style>.cls-1{fill:#fff;}.cls-2{fill:none;stroke:#fff;stroke-miterlimit:10;stroke-width:0.21px;}.cls-3{opacity:0.5;}</style></defs><title>Pattern</title><g id="Scroll"><path class="cls-1" d="M36.32,26.73v2.81l.41,0a3.22,3.22,0,0,1,2.21.88,3.08,3.08,0,0,1,1.26-.27,3,3,0,0,1,2.35,1.11,2.74,2.74,0,0,1,.72-.09,2.89,2.89,0,0,1,2.86,2.92v2.77a11.6,11.6,0,0,1-.36,2.87l-1.17,4.7a2.45,2.45,0,0,1-2.38,1.85H33A3.33,3.33,0,0,1,30.43,45l-4.9-6.54a3.27,3.27,0,0,1,4.25-4.79v-7A3.28,3.28,0,0,1,33,23.39,3.32,3.32,0,0,1,36.32,26.73Zm-4.9-.08V38.1l-1.93-2.58a1.74,1.74,0,0,0-1.37-.69,1.63,1.63,0,0,0-1.61,1.63,1.6,1.6,0,0,0,.33,1L31.75,44a1.63,1.63,0,0,0,1.3.65h9.17A.82.82,0,0,0,43,44l1.17-4.7a10.22,10.22,0,0,0,.31-2.48V34.08a1.26,1.26,0,0,0-1.23-1.29A1.23,1.23,0,0,0,42,34h-.41v-.78a1.43,1.43,0,1,0-2.86,0V34h-.41V32.86a1.67,1.67,0,0,0-1.63-1.71,1.63,1.63,0,0,0-1.63,1.63V34h-.41V26.73A1.67,1.67,0,0,0,33,25,1.63,1.63,0,0,0,31.41,26.66Zm3.27,9.81h-.41v4.9h.41Zm3.27,0h-.41v4.9H38Zm3.27,0h-.41v4.9h.41Z"/></g><g id="_3.4_kontur" data-name="3.4 kontur"><path class="cls-2" d="M23.78,21.17a15.15,15.15,0,0,0,11.6-1.67,15.15,15.15,0,0,0-11.6-1.67,15.33,15.33,0,0,0,6.94-9.38,15.27,15.27,0,0,0-9.3,6.93A15.4,15.4,0,0,0,19.74,3.75a15.4,15.4,0,0,0-1.68,11.62,15.27,15.27,0,0,0-9.3-6.93,15.33,15.33,0,0,0,6.94,9.38A15.15,15.15,0,0,0,4.1,19.5a15.15,15.15,0,0,0,11.6,1.67,15.33,15.33,0,0,0-6.94,9.38,15.28,15.28,0,0,0,9.3-6.93,15.4,15.4,0,0,0,1.68,11.62,15.4,15.4,0,0,0,1.68-11.62,15.27,15.27,0,0,0,9.3,6.93A15.33,15.33,0,0,0,23.78,21.17Z"/><g class="cls-3"><path class="cls-1" d="M23.78,21.17a15.15,15.15,0,0,0,11.6-1.67,15.15,15.15,0,0,0-11.6-1.67,15.33,15.33,0,0,0,6.94-9.38,15.27,15.27,0,0,0-9.3,6.93A15.4,15.4,0,0,0,19.74,3.75a15.4,15.4,0,0,0-1.68,11.62,15.27,15.27,0,0,0-9.3-6.93,15.33,15.33,0,0,0,6.94,9.38A15.15,15.15,0,0,0,4.1,19.5a15.15,15.15,0,0,0,11.6,1.67,15.33,15.33,0,0,0-6.94,9.38,15.28,15.28,0,0,0,9.3-6.93,15.4,15.4,0,0,0,1.68,11.62,15.4,15.4,0,0,0,1.68-11.62,15.27,15.27,0,0,0,9.3,6.93A15.33,15.33,0,0,0,23.78,21.17Z"/></g></g></svg>