<svg xmlns="http://www.w3.org/2000/svg" xmlns:xlink="http://www.w3.org/1999/xlink" viewBox="0 0 17.72 17.72"><defs><style>.cls-1{fill:url(#Unbenannter_Verlauf_3);}</style><linearGradient id="Unbenannter_Verlauf_3" x1="8.89" y1="0.12" x2="8.89" y2="17.56" gradientUnits="userSpaceOnUse"><stop offset="0" stop-color="#ccc"/><stop offset="1" stop-color="#8c8c8c"/></linearGradient></defs><title>Plus</title><g id="Plus"><path class="cls-1" d="M8.89,17.56a8.72,8.72,0,1,1,8.72-8.72A8.72,8.72,0,0,1,8.89,17.56ZM14,8.11a.73.73,0,0,0-.73-.73H10.35V4.48a.73.73,0,0,0-.73-.73H8.17a.73.73,0,0,0-.73.73V7.38H4.53a.73.73,0,0,0-.73.73V9.56a.73.73,0,0,0,.73.73H7.44V13.2a.73.73,0,0,0,.73.73H9.62a.73.73,0,0,0,.73-.73V10.29h2.91A.73.73,0,0,0,14,9.56Z"/></g></svg>