<svg xmlns="http://www.w3.org/2000/svg" xmlns:xlink="http://www.w3.org/1999/xlink" viewBox="0 0 17.72 17.72"><defs><style>.cls-1{fill:url(#Unbenannter_Verlauf_3);}</style><linearGradient id="Unbenannter_Verlauf_3" x1="8.88" y1="0.22" x2="8.88" y2="17.36" gradientUnits="userSpaceOnUse"><stop offset="0" stop-color="#ccc"/><stop offset="1" stop-color="#8c8c8c"/></linearGradient></defs><title>Resize_Small</title><g id="Resize_Big"><path class="cls-1" d="M8.88,14.6a.73.73,0,0,1-.73.73.72.72,0,0,1-.51-.22L6,13.48,2.23,17.25a.39.39,0,0,1-.26.11.39.39,0,0,1-.26-.11L.42,16a.36.36,0,0,1,0-.52l3.77-3.77L2.55,10a.72.72,0,0,1-.21-.51.73.73,0,0,1,.73-.73H8.15a.73.73,0,0,1,.73.73ZM17.33,2.15,13.56,5.92,15.2,7.55a.72.72,0,0,1,.22.51.73.73,0,0,1-.73.73H9.6a.73.73,0,0,1-.73-.73V3a.73.73,0,0,1,.73-.73.72.72,0,0,1,.51.22L11.75,4.1,15.52.33a.36.36,0,0,1,.52,0l1.29,1.29a.39.39,0,0,1,.11.26A.39.39,0,0,1,17.33,2.15Z"/></g></svg>