<svg xmlns="http://www.w3.org/2000/svg" xmlns:xlink="http://www.w3.org/1999/xlink" viewBox="0 0 17.72 17.72"><defs><style>.cls-1{fill:url(#Unbenannter_Verlauf_3);}</style><linearGradient id="Unbenannter_Verlauf_3" x1="8.88" y1="0.31" x2="8.88" y2="17.25" gradientUnits="userSpaceOnUse"><stop offset="0" stop-color="#ccc"/><stop offset="1" stop-color="#8c8c8c"/></linearGradient></defs><title>Resize_Big</title><g id="Resize_Small"><path class="cls-1" d="M8.63,10.8,5,14.46,6.55,16a.7.7,0,0,1,.21.5.71.71,0,0,1-.71.71H1.11a.71.71,0,0,1-.71-.71V11.6a.71.71,0,0,1,.71-.71.7.7,0,0,1,.5.21L3.2,12.7,6.86,9a.35.35,0,0,1,.51,0l1.26,1.26a.35.35,0,0,1,0,.51ZM17.35,6a.71.71,0,0,1-.71.71.7.7,0,0,1-.5-.21L14.56,4.86,10.9,8.53a.35.35,0,0,1-.51,0L9.13,7.27a.35.35,0,0,1,0-.51L12.8,3.1,11.21,1.51A.7.7,0,0,1,11,1,.71.71,0,0,1,11.7.31h4.94a.71.71,0,0,1,.71.71Z"/></g></svg>