<svg xmlns="http://www.w3.org/2000/svg" xmlns:xlink="http://www.w3.org/1999/xlink" viewBox="0 0 17.72 17.72"><defs><style>.cls-1{fill:url(#Unbenannter_Verlauf_3);}</style><linearGradient id="Unbenannter_Verlauf_3" x1="297.36" y1="0.29" x2="297.36" y2="17.43" gradientTransform="matrix(-1, 0, 0, 1, 306.22, 0)" gradientUnits="userSpaceOnUse"><stop offset="0" stop-color="#ccc"/><stop offset="1" stop-color="#8c8c8c"/></linearGradient></defs><title>Rotation_Left</title><g id="Rotation"><path class="cls-1" d="M.29,1.72a.72.72,0,0,1,.44-.66.7.7,0,0,1,.78.16L3,2.66A8.67,8.67,0,0,1,8.86.29a8.57,8.57,0,1,1-6.59,14,.36.36,0,0,1,0-.48l1.53-1.54a.43.43,0,0,1,.28-.1.36.36,0,0,1,.26.13,5.65,5.65,0,0,0,4.51,2.22A5.71,5.71,0,1,0,5,4.68L6.51,6.22A.69.69,0,0,1,6.66,7,.72.72,0,0,1,6,7.43H1a.72.72,0,0,1-.71-.71Z"/></g></svg>