<svg xmlns="http://www.w3.org/2000/svg" xmlns:xlink="http://www.w3.org/1999/xlink" viewBox="0 0 17.62 17.62"><defs><style>.cls-1{fill:url(#Unbenannter_Verlauf_3);}</style><linearGradient id="Unbenannter_Verlauf_3" x1="8.81" y1="0.24" x2="8.81" y2="17.38" gradientUnits="userSpaceOnUse"><stop offset="0" stop-color="#ccc"/><stop offset="1" stop-color="#8c8c8c"/></linearGradient></defs><title>Rotation_Right</title><g id="Rotation"><path class="cls-1" d="M17.38,6.67a.72.72,0,0,1-.71.71h-5A.72.72,0,0,1,11,6.94a.69.69,0,0,1,.16-.77L12.7,4.63a5.71,5.71,0,1,0-3.89,9.89,5.65,5.65,0,0,0,4.51-2.22.36.36,0,0,1,.26-.13.43.43,0,0,1,.28.1l1.53,1.54a.36.36,0,0,1,0,.48A8.57,8.57,0,1,1,8.81.24a8.67,8.67,0,0,1,5.9,2.36l1.45-1.44A.7.7,0,0,1,16.94,1a.72.72,0,0,1,.44.66Z"/></g></svg>