<?xml version="1.0" encoding="utf-8"?>
<!-- Generator: Adobe Illustrator 20.1.0, SVG Export Plug-In . SVG Version: 6.00 Build 0)  -->
<svg version="1.1" id="Ebene_1" xmlns="http://www.w3.org/2000/svg" xmlns:xlink="http://www.w3.org/1999/xlink" x="0px" y="0px"
	 viewBox="0 0 60 60" style="enable-background:new 0 0 60 60;" xml:space="preserve">
<style type="text/css">
	.st0{fill:#004283;}
	.st1{fill:#FFFFFF;}
</style>
<g>
	<rect id="farbfläche" class="st0" width="60" height="60"/>
	<path id="Bildmarke" class="st1" d="M16.6,26.1l7.7,0l-1.3,5.5h8l5.7,8.5H25.2l-2.6-3.8h-4.9l-0.4-4.9l-2,0L16.6,26.1z M19.3,11.9
		l3.9,5.5c2.7-2.1,4.9-3.5,7.6-3.5c2.3,0,4.9,1,6.2,3.3c1.1,2,1.1,5,0,6.9c-2.1,3.9-4,7.5-4.1,7.5l3.7,5.4c0,0,6.1-9.1,7.1-13.8
		c0.9-4.2,0.3-7.6-1.9-10.7C39.4,8.8,35,7.4,31.5,7.3C26.5,7.1,21.2,10.2,19.3,11.9 M15.5,24.7c0,0,10.4-7.6,12.9-9
		c0.9-0.5,4.7-1,6.8,1.7c1.9,2.3,0.7,5.8-0.1,7c-0.8,1.3-3.3,5.9-3.3,5.9h-6.7l1.3-5.6H15.5z"/>
	<g id="R-Zeichen">
		<path class="st1" d="M54.4,47.6l0.3,0.5h-0.2l-0.3-0.5H54v0.5h-0.2V47h0.5c0.2,0,0.4,0.1,0.4,0.3C54.7,47.5,54.6,47.6,54.4,47.6
			 M54,47.4h0.2c0.1,0,0.4,0,0.4-0.1c0-0.1-0.1-0.1-0.3-0.1H54V47.4z"/>
		<path class="st1" d="M54.3,48.5c-0.6,0-1-0.4-1-1c0-0.6,0.4-1,1-1c0.6,0,1,0.4,1,1C55.3,48.1,54.8,48.5,54.3,48.5 M54.3,48.4
			c0.5,0,0.9-0.4,0.9-0.8c0-0.5-0.4-0.8-0.9-0.8c-0.5,0-0.9,0.4-0.9,0.8C53.4,48,53.8,48.4,54.3,48.4"/>
	</g>
	<g id="R-Zeichen_4_">
		<path class="st1" d="M39,38.1l0.3,0.5h-0.2l-0.3-0.5h-0.2v0.5h-0.2v-1.1H39c0.2,0,0.4,0.1,0.4,0.3C39.3,38,39.2,38.1,39,38.1
			 M38.6,37.9h0.2c0.1,0,0.4,0,0.4-0.1c0-0.1-0.1-0.1-0.3-0.1h-0.3V37.9z"/>
		<path class="st1" d="M38.9,39.1c-0.6,0-1-0.4-1-1s0.4-1,1-1c0.6,0,1,0.4,1,1S39.4,39.1,38.9,39.1 M38.9,38.9
			c0.5,0,0.9-0.4,0.9-0.8c0-0.5-0.4-0.8-0.9-0.8c-0.5,0-0.9,0.4-0.9,0.8C38,38.5,38.4,38.9,38.9,38.9"/>
	</g>
	<g id="wortmarke">
		<path class="st1" d="M10.7,49.4H9.1c-0.3,0-0.5-0.2-0.5-0.5c0-0.3,0.3-0.5,0.6-0.5h2.5l0-1.1l-2.8,0c-0.9,0-1.6,0.7-1.6,1.6
			c0,0.9,0.7,1.6,1.6,1.6h1.6c0.3,0,0.6,0.2,0.6,0.6c0,0.3-0.2,0.6-0.6,0.6l-3.2,0l0,1.1h3.4c0.9,0,1.6-0.7,1.6-1.6
			C12.3,50.2,11.6,49.4,10.7,49.4z"/>
		<polygon class="st1" points="17,47.3 12.4,47.3 12.4,48.5 13.9,48.5 13.9,52.7 15,52.7 15,48.5 17,48.5 		"/>
		<path class="st1" d="M18.6,47.6c-0.1,0.1-0.3,0.3-0.3,0.3l-2.6,4.8H17l0.6-1.1h2.7v1.1h1.2v-5.4h-2.2C19,47.3,18.8,47.4,18.6,47.6
			z M19.4,48.5c0.1-0.1,0.2-0.1,0.4-0.1h0.5v2.1h-2.1l0.9-1.7C19.1,48.7,19.3,48.6,19.4,48.5z"/>
		<polygon class="st1" points="22.5,52.7 26.7,52.7 26.7,51.7 23.8,51.7 23.8,50.5 26.4,50.5 26.4,49.5 23.8,49.5 23.8,48.4 
			26.7,48.4 26.7,47.3 22.5,47.3 		"/>
		<path class="st1" d="M30.9,47.3c-0.8,0-3.2,0-3.2,0v5.4H31c1.3,0,2.1-0.9,2.1-2.8C33.1,48.6,32.3,47.3,30.9,47.3z M30.6,51.7H29
			v-3.3h1.7c0.8,0,1.3,0.6,1.3,1.6C31.9,51.1,31.4,51.7,30.6,51.7z"/>
		<polygon class="st1" points="33.3,48.4 35,48.4 35,52.7 36.2,52.7 36.2,48.4 38,48.4 38,47.3 33.3,47.3 		"/>
		<polygon class="st1" points="39.7,47.3 38.5,47.3 38.5,52.7 42,52.7 42,51.7 39.7,51.7 		"/>
		<path class="st1" d="M51.8,50.7c-0.1-0.2-0.1-0.3-0.3-0.4c-0.1-0.1-0.3-0.2-0.5-0.2c0.7-0.1,1.3-0.6,1.3-1.4
			c0-0.8-0.6-1.4-1.4-1.4h-3v5.4h1.2v-2.2h0.7c0.2,0,0.4,0.1,0.6,0.2c0.1,0.1,0.2,0.2,0.3,0.4l0.7,1.6h1.3L51.8,50.7z M50.5,49.5
			h-1.4v-1.1h1.4c0.3,0,0.5,0.2,0.5,0.5C51,49.2,50.8,49.5,50.5,49.5z"/>
		<polygon class="st1" points="47,47.3 42.8,47.3 42.8,52.7 47.1,52.7 47.1,51.7 44.1,51.7 44.1,50.5 46.7,50.5 46.7,49.5 
			44.1,49.5 44.1,48.4 47.1,48.4 		"/>
	</g>
</g>
</svg>
