<svg xmlns="http://www.w3.org/2000/svg" viewBox="0 0 141.73 141.73"><defs><style>.cls-1{fill:#fff;}.cls-2{fill:none;stroke:#000;stroke-linecap:round;stroke-linejoin:round;stroke-width:0.75px;}</style></defs><title>sine_art_1</title><g id="_1_fill" data-name="1 fill"><path class="cls-1" d="M70.79,123.95c18.7,0,30.78-7.85,36.54-19.69C121.22,77,71.93,55.69,70.79,17.78,69.52,56,20.91,75.39,34.25,104.26,40,116.1,52.09,123.95,70.79,123.95Z"/></g><g id="_1_stroke" data-name="1 stroke"><path class="cls-2" d="M70.79,123.95c18.7,0,30.78-7.85,36.54-19.69C121.22,77,71.93,55.69,70.79,17.78,69.52,56,20.91,75.39,34.25,104.26,40,116.1,52.09,123.95,70.79,123.95Z"/><path class="cls-2" d="M70.79,108.63c10,0,16.5-4.21,19.59-10.56C97.1,84.27,74.07,68.43,70.79,51.7,67.51,68.43,44.48,84.27,51.19,98.07,54.29,104.42,60.76,108.63,70.79,108.63Z"/><path class="cls-2" d="M70.79,99.25a8.83,8.83,0,1,0-8.92-8.83A8.91,8.91,0,0,0,70.79,99.25Z"/></g></svg>