<svg xmlns="http://www.w3.org/2000/svg" viewBox="0 0 141.73 141.73"><defs><style>.cls-1{fill:#fff;}.cls-2{fill:none;stroke:#000;stroke-linecap:round;stroke-linejoin:round;stroke-width:0.75px;}</style></defs><title>Artboard 31</title><g id="_31_fill" data-name="31 fill"><path class="cls-1" d="M116.56,52.57c-5.46-3.67-9.62.75-13,5.33,3.4-5.08,7-10.25,1.57-14.33C100.72,40.24,95,45.94,91.8,51.25c3.38-5.47,7-10.85,1.46-14.6-5.51-3.54-8.84,2.77-12.92,8.91h0c3.55-5.76,8.21-12,1.25-15.66-5-2.87-9.48,2.38-10.73,6.25C69.61,32.28,65.17,27,60.13,29.9c-7,3.71-2.3,9.9,1.25,15.66h0C57.31,39.42,54,33.11,48.47,36.65c-5.5,3.75-1.92,9.13,1.46,14.6-3.21-5.3-8.92-11-13.29-7.68-5.42,4.08-1.83,9.25,1.57,14.33-3.41-4.58-7.57-9-13-5.33-6.21,5,2.33,13.19,5.46,15.74h0a17.87,17.87,0,0,0,6,19.16c9.44,8.56,23.53,2.26,34.22,25.18C81.56,89.74,95.64,96,105.08,87.47a17.87,17.87,0,0,0,6-19.16h0C114.22,65.76,122.77,57.61,116.56,52.57Z"/></g><g id="_31_stroke" data-name="31 stroke"><circle class="cls-2" cx="53.4" cy="70.71" r="6.27"/><circle class="cls-2" cx="53.4" cy="70.71" r="2.4"/><path class="cls-2" d="M34.8,61C33,58.8,31,55.78,29.29,57c-1.67,1.75,1,4.44,3.41,6.85"/><path class="cls-2" d="M44.75,53.8c-1.49-2.36-3-5.4-4.49-4.82-1.62,1.08.48,3.87,2.13,6.13"/><path class="cls-2" d="M54,49.33C52.37,46.85,50,44,52,42.74c1.79-.79,3.43,2.61,4.84,5.26"/><path class="cls-2" d="M65.9,42.51c-2.18-2.61-4.56-5.06-3.28-6.64,1.3-1.21,3.36,2.36,5.15,5"/><path class="cls-2" d="M70.86,36.65c6.36,12.5,30.27,14.38,38,27,5.85,9,2.53,18.65-3.78,23.84C95.63,96,81.55,89.74,70.86,112.65,60.17,89.74,46.09,96,36.64,87.47,30.34,82.28,27,72.66,32.86,63.63,40.59,51,64.5,49.15,70.86,36.65Z"/><path class="cls-2" d="M70.86,44.65c6.77,11.42,24.91,11,31.27,20.63,4.82,6.91,2.08,14.26-3.11,18.24-7.77,6.54-22.89,3-28.16,19.26C65.59,86.49,50.47,90.06,42.7,83.52c-5.19-4-7.93-11.33-3.11-18.24C45.95,55.65,64.09,56.07,70.86,44.65Z"/><circle class="cls-2" cx="88.32" cy="70.71" r="6.27"/><circle class="cls-2" cx="70.86" cy="70.71" r="8.24"/><circle class="cls-2" cx="70.86" cy="70.71" r="3.09"/><circle class="cls-2" cx="88.32" cy="70.71" r="2.4"/><path class="cls-2" d="M111.09,68.31c3.12-2.55,11.67-10.7,5.46-15.74-5.46-3.67-9.62.75-13,5.33,3.4-5.08,7-10.25,1.57-14.33C100.72,40.24,95,45.94,91.8,51.25c3.38-5.47,7-10.85,1.46-14.6-5.51-3.54-8.85,2.77-12.92,8.91,3.55-5.76,8.21-12,1.26-15.66-5-2.87-9.48,2.38-10.73,6.25C69.61,32.28,65.17,27,60.13,29.9c-7,3.71-2.3,9.91,1.26,15.66C57.31,39.43,54,33.11,48.46,36.65c-5.5,3.75-1.92,9.13,1.46,14.6-3.21-5.3-8.92-11-13.29-7.68-5.42,4.08-1.83,9.25,1.57,14.33-3.41-4.58-7.57-9-13-5.33-6.21,5,2.33,13.19,5.46,15.74"/><path class="cls-2" d="M106.92,61c1.84-2.23,3.84-5.25,5.51-4,1.67,1.75-1,4.44-3.41,6.85"/><path class="cls-2" d="M97,53.8c1.49-2.36,3-5.4,4.49-4.82,1.62,1.08-.48,3.87-2.13,6.13"/><path class="cls-2" d="M87.68,49.33c1.67-2.48,4-5.3,2.08-6.59C88,41.94,86.33,45.34,84.92,48"/><path class="cls-2" d="M75.82,42.51c2.18-2.61,4.56-5.06,3.28-6.64-1.3-1.21-3.36,2.36-5.15,5"/></g></svg>